<svg width="23" height="25" viewBox="0 0 23 25" fill="none" xmlns="http://www.w3.org/2000/svg">
<path d="M1.46875 22.9375C1.40625 22.9583 1.36458 22.9375 1.34375 22.875C1.32292 22.8125 1.3125 22.75 1.3125 22.6875C1.33333 22.625 1.36458 22.5729 1.40625 22.5312C1.46875 22.4896 1.54167 22.4896 1.625 22.5312C1.35417 22.1979 1.17708 21.8958 1.09375 21.625C1.03125 21.3542 0.895833 21.0208 0.6875 20.625C0.75 20.5625 0.791667 20.4792 0.8125 20.375C0.833333 20.25 0.864583 20.1354 0.90625 20.0312C0.927083 19.9271 0.958333 19.8542 1 19.8125C1.0625 19.75 1.13542 19.7604 1.21875 19.8438C1.17708 19.6146 1.17708 19.4271 1.21875 19.2812C1.26042 19.1354 1.30208 19 1.34375 18.875C1.40625 18.75 1.44792 18.625 1.46875 18.5C1.48958 18.375 1.45833 18.2292 1.375 18.0625C1.77083 17.5208 2.03125 16.9375 2.15625 16.3125C2.28125 15.6667 2.35417 15.0833 2.375 14.5625C2.5625 14.375 2.71875 14.125 2.84375 13.8125C2.98958 13.5 3.09375 13.1771 3.15625 12.8438C3.21875 12.5104 3.25 12.1875 3.25 11.875C3.25 11.5417 3.20833 11.2812 3.125 11.0938C3.14583 11.0104 3.1875 10.9688 3.25 10.9688C3.33333 10.9479 3.42708 10.9479 3.53125 10.9688C3.67708 10.1354 3.77083 9.20833 3.8125 8.1875C3.875 7.16667 3.97917 6.1875 4.125 5.25C4.29167 4.29167 4.55208 3.45833 4.90625 2.75C5.26042 2.02083 5.82292 1.55208 6.59375 1.34375C6.73958 1.86458 6.92708 2.32292 7.15625 2.71875C7.40625 3.11458 7.66667 3.5 7.9375 3.875C8.22917 4.25 8.52083 4.625 8.8125 5C9.10417 5.375 9.375 5.79167 9.625 6.25C9.60417 6.72917 9.55208 7.28125 9.46875 7.90625C9.40625 8.53125 9.3125 9.16667 9.1875 9.8125C9.08333 10.4583 8.96875 11.0833 8.84375 11.6875C8.73958 12.2917 8.63542 12.8021 8.53125 13.2188C8.55208 13.3229 8.625 13.3958 8.75 13.4375C8.875 13.4583 8.89583 13.5729 8.8125 13.7812C9.41667 13.6354 10.0417 13.5 10.6875 13.375C11.3542 13.2292 12 13.0938 12.625 12.9688C13.2708 12.8229 13.8958 12.6562 14.5 12.4688C15.125 12.2812 15.7083 12.0521 16.25 11.7812C16.375 10.7812 16.5312 9.79167 16.7188 8.8125C16.9062 7.83333 16.9271 6.84375 16.7812 5.84375C16.9062 5.73958 17.0104 5.61458 17.0938 5.46875C17.1771 5.32292 17.3021 5.22917 17.4688 5.1875C17.3438 4.70833 17.2917 4.20833 17.3125 3.6875C17.3333 3.14583 17.4167 2.64583 17.5625 2.1875C17.7292 1.72917 17.9688 1.33333 18.2812 1C18.5938 0.645833 18.9792 0.416667 19.4375 0.3125C19.7083 0.708333 19.9479 1.13542 20.1562 1.59375C20.3646 2.05208 20.5729 2.52083 20.7812 3C20.9896 3.45833 21.2083 3.89583 21.4375 4.3125C21.6875 4.72917 22 5.08333 22.375 5.375C22.4375 6.10417 22.4896 6.85417 22.5312 7.625C22.5729 8.375 22.6042 9.15625 22.625 9.96875C22.4375 10.9062 22.2188 11.8229 21.9688 12.7188C21.7396 13.5938 21.5729 14.5312 21.4688 15.5312C21.3021 15.7188 21.1667 15.9479 21.0625 16.2188C20.9583 16.4688 20.8542 16.7292 20.75 17C20.6667 17.25 20.5625 17.5 20.4375 17.75C20.3125 18 20.1562 18.2083 19.9688 18.375C20.0521 18.6667 20.0625 18.9479 20 19.2188C19.9583 19.4688 20.0312 19.7708 20.2188 20.125C20.2604 20.7708 20.1771 21.3125 19.9688 21.75C19.7812 22.1667 19.5104 22.5312 19.1562 22.8438C18.8229 23.1354 18.4271 23.375 17.9688 23.5625C17.5312 23.7292 17.0938 23.8854 16.6562 24.0312C16.4479 23.9062 16.25 23.7812 16.0625 23.6562C15.8958 23.5104 15.6875 23.4062 15.4375 23.3438L15.5938 23.0625C15.1771 22.6458 14.8125 22.2083 14.5 21.75C14.2083 21.2708 14.0729 20.7292 14.0938 20.125C14.0938 20.1042 14.1146 19.9688 14.1562 19.7188C14.1979 19.4479 14.2396 19.1667 14.2812 18.875C14.3438 18.5833 14.3958 18.3125 14.4375 18.0625C14.5 17.7917 14.5312 17.6458 14.5312 17.625C13.9479 17.6875 13.3438 17.8229 12.7188 18.0312C12.0938 18.2396 11.4792 18.4792 10.875 18.75C10.2917 19 9.73958 19.2708 9.21875 19.5625C8.71875 19.8333 8.3125 20.0625 8 20.25C8 20.3125 7.94792 20.4896 7.84375 20.7812C7.73958 21.0729 7.61458 21.3854 7.46875 21.7188C7.32292 22.0312 7.15625 22.3125 6.96875 22.5625C6.80208 22.8125 6.625 22.9271 6.4375 22.9062C6.47917 23.0104 6.52083 23.0938 6.5625 23.1562C6.60417 23.1979 6.60417 23.2917 6.5625 23.4375C6.20833 23.5417 5.88542 23.6771 5.59375 23.8438C5.32292 24.0104 5.04167 24.1458 4.75 24.25C4.45833 24.375 4.13542 24.4271 3.78125 24.4062C3.44792 24.4062 3.04167 24.2812 2.5625 24.0312C2.5625 23.8854 2.5 23.7604 2.375 23.6562C2.25 23.5312 2.11458 23.4271 1.96875 23.3438C1.84375 23.2604 1.72917 23.1875 1.625 23.125C1.52083 23.0625 1.46875 23 1.46875 22.9375Z" fill="white"/>
</svg>
